# xmcd
#
# Track frame offsets:
# 150
# 21634
# 41903
# 55595
# 74275
# 91533
# 115587
# 137037
# 150609
# 176035
# 197474
#
# Disc length: 2947 seconds
#
#
# Revision: 0
# Processed by: cddbd v1.5.2PL0 Copyright (c) Steve Scherf et al.
# Submitted via: FreeRIP 2.945 
#
DISCID=8d0b810b
DTITLE=The Radio Kings - The Radio Kings
DYEAR=2009
DGENRE=Blues
TTITLE0=Can't Keep A Good Man Down
TTITLE1=Donna
TTITLE2=She Belongs To Me
TTITLE3=Watch The Trains Roll By
TTITLE4=The Moanin' Blues
TTITLE5=Everything's Gonna Be All Right
TTITLE6=Pallet On The Floor
TTITLE7=Evil Love
TTITLE8=I'm Not Trippin'
TTITLE9=You Got To Dir
TTITLE10=You're Gonna Make Me Cry
EXTD=
EXTT0=
EXTT1=
EXTT2=
EXTT3=
EXTT4=
EXTT5=
EXTT6=
EXTT7=
EXTT8=
EXTT9=
EXTT10=
PLAYORDER=
